<?xml version="1.0" standalone="no"?>
<!DOCTYPE svg PUBLIC "-//W3C//DTD SVG 20010904//EN"
 "http://www.w3.org/TR/2001/REC-SVG-20010904/DTD/svg10.dtd">
<svg version="1.0" xmlns="http://www.w3.org/2000/svg"
 width="600.000000pt" height="316.000000pt" viewBox="0 0 600.000000 316.000000"
 preserveAspectRatio="xMidYMid meet">

<g transform="translate(0.000000,316.000000) scale(0.100000,-0.100000)"
fill="#000000" stroke="none">
<path d="M2396 1104 c-4 -10 -6 -78 -5 -152 0 -73 -2 -136 -5 -139 -3 -3 -29
5 -58 17 -108 47 -233 25 -306 -54 -64 -70 -85 -139 -85 -281 0 -101 3 -129
22 -178 46 -117 116 -166 238 -167 63 0 80 4 139 35 37 19 71 35 76 35 6 0 33
-20 60 -45 28 -25 60 -45 72 -45 24 0 96 67 96 89 0 7 -11 22 -25 33 -50 39
-50 39 -55 463 l-5 400 -76 3 c-65 2 -78 0 -83 -14z m-72 -408 c70 -29 72 -34
66 -201 l-5 -149 -40 -23 c-92 -52 -177 -37 -217 39 -32 62 -32 204 0 266 40
75 117 101 196 68z"/>
<path d="M5710 978 c0 -79 -4 -149 -9 -157 -8 -12 -17 -11 -60 8 -74 31 -128
36 -195 17 -111 -33 -179 -127 -196 -272 -17 -151 16 -290 84 -358 48 -48 98
-66 184 -66 50 0 73 6 128 35 37 19 73 35 80 35 8 0 32 -18 54 -40 22 -22 52
-43 66 -46 23 -6 34 0 72 41 l46 48 -30 26 c-62 53 -59 31 -64 465 l-5 401
-77 3 -78 3 0 -143z m-67 -284 c67 -34 67 -33 67 -189 0 -123 -2 -144 -17
-157 -37 -32 -89 -52 -140 -52 -44 -1 -56 3 -82 28 -40 39 -54 85 -54 176 0
134 54 210 151 210 24 0 57 -7 75 -16z"/>
<path d="M3424 1076 c-3 -7 -4 -191 -2 -407 3 -387 3 -395 26 -444 27 -59 63
-99 104 -116 28 -11 32 -10 74 32 24 24 44 48 44 55 0 6 -12 19 -26 29 -14 9
-34 35 -45 58 -17 39 -19 71 -19 425 l0 382 -75 0 c-55 0 -77 -4 -81 -14z"/>
<path d="M398 846 c-26 -7 -63 -25 -83 -40 -40 -31 -62 -29 -67 6 -3 22 -7 23
-78 23 l-75 0 -3 -333 c-1 -219 1 -332 8 -333 13 0 127 0 140 0 6 1 10 83 10
225 l0 225 43 34 c57 46 79 57 121 57 28 0 40 -6 53 -27 16 -24 18 -58 21
-269 l4 -242 69 -4 c38 -2 74 -1 79 0 6 2 10 90 10 227 l0 224 43 34 c57 46
79 57 121 57 28 0 40 -6 53 -27 16 -24 18 -58 21 -270 2 -139 8 -243 13 -244
5 0 36 0 69 0 33 0 65 0 71 0 17 1 8 559 -10 591 -43 78 -122 111 -216 90 -56
-13 -77 -23 -126 -61 -20 -16 -41 -29 -45 -29 -5 0 -16 13 -26 29 -31 56 -131
82 -220 57z"/>
<path d="M1442 849 c-106 -18 -184 -84 -219 -183 -28 -79 -25 -272 6 -348 28
-71 93 -132 164 -153 65 -19 218 -19 283 0 52 15 124 67 124 90 0 14 -92 85
-110 85 -6 0 -24 -10 -40 -21 -41 -31 -152 -37 -199 -12 -46 24 -71 60 -74
108 l-2 40 220 5 220 5 -2 84 c-3 103 -23 165 -68 218 -60 70 -182 103 -303
82z m155 -145 c30 -19 55 -69 51 -102 l-3 -27 -124 -3 c-70 -1 -129 2 -134 7
-13 13 -1 71 21 99 37 48 134 62 189 26z"/>
<path d="M2959 850 c-167 -30 -263 -186 -245 -398 14 -149 74 -241 184 -282
48 -19 73 -21 162 -18 76 3 115 9 140 22 43 22 90 65 90 82 0 13 -91 84 -107
84 -6 0 -22 -10 -37 -21 -39 -31 -139 -37 -185 -11 -57 31 -76 81 -76 192 1
112 18 160 67 190 50 30 134 28 183 -6 l38 -25 53 36 c64 42 68 63 21 99 -65
49 -190 74 -288 56z"/>
<path d="M3986 850 c-161 -29 -240 -144 -240 -350 0 -164 44 -259 145 -315 47
-25 67 -30 150 -33 212 -9 309 68 341 271 30 197 -53 380 -190 416 -58 16
-153 20 -206 11z m178 -169 c37 -35 50 -85 50 -186 0 -71 -4 -99 -20 -130 -53
-103 -210 -100 -257 4 -46 103 -20 280 47 322 45 29 145 23 180 -10z"/>
<path d="M4544 827 c-3 -8 -4 -135 -2 -283 3 -239 5 -273 22 -307 30 -61 68
-81 161 -85 76 -4 84 -2 150 32 72 38 95 40 95 7 0 -17 8 -20 71 -23 39 -2 75
0 80 3 5 3 8 144 7 335 l-3 329 -75 0 -75 0 -3 -222 -2 -221 -37 -32 c-66 -58
-141 -83 -183 -60 -41 22 -45 47 -50 295 l-5 240 -73 3 c-54 2 -74 -1 -78 -11z"/>
</g>
</svg>
